<?xml version="1.0" standalone="no"?>
<!DOCTYPE svg PUBLIC "-//W3C//DTD SVG 20010904//EN"
 "http://www.w3.org/TR/2001/REC-SVG-20010904/DTD/svg10.dtd">
<svg version="1.0" xmlns="http://www.w3.org/2000/svg"
 width="550.000000pt" height="550.000000pt" viewBox="0 0 550.000000 550.000000"
 preserveAspectRatio="xMidYMid meet">
<metadata>
Created by potrace 1.14, written by Peter Selinger 2001-2017
</metadata>
<g transform="translate(0.000000,550.000000) scale(0.100000,-0.100000)"
fill="#000000" stroke="none">
<path d="M360 4664 c-164 -60 -215 -188 -160 -403 21 -83 107 -316 140 -381
54 -106 99 -334 115 -580 5 -80 14 -165 20 -201 2 -9 6 -40 10 -70 4 -30 11
-62 17 -72 5 -10 10 -28 11 -40 2 -12 13 -52 25 -89 36 -104 79 -137 232 -178
77 -20 107 -22 319 -22 l233 0 -81 -54 c-44 -30 -83 -54 -86 -54 -3 0 -18 -11
-33 -24 -211 -182 -238 -211 -295 -316 -88 -160 -60 -404 68 -605 195 -307
236 -366 305 -436 142 -143 331 -226 580 -254 14 -2 43 -7 65 -11 60 -11 184
-10 240 2 63 13 184 83 264 154 67 59 172 186 213 260 14 25 35 61 46 80 32
53 107 274 126 370 10 47 21 89 25 93 4 4 13 -25 20 -65 12 -70 58 -225 88
-298 65 -158 169 -312 287 -423 58 -55 192 -145 249 -166 34 -13 207 -17 267
-7 25 4 56 9 70 11 146 20 232 41 302 71 201 89 301 176 427 374 210 329 221
350 252 469 64 244 5 410 -216 605 -96 84 -114 98 -224 169 l-84 55 234 1
c249 1 245 0 341 27 77 21 128 47 162 80 28 29 86 194 101 289 7 41 24 202 30
270 23 298 57 462 124 605 40 86 98 244 127 350 60 216 12 354 -142 407 -36
12 -77 14 -212 10 -92 -3 -178 -8 -192 -11 -14 -4 -41 -9 -60 -12 -75 -12
-189 -45 -275 -80 -49 -19 -111 -44 -138 -54 -53 -21 -254 -125 -277 -145 -8
-7 -28 -20 -45 -28 -16 -9 -41 -26 -55 -39 -14 -13 -59 -52 -100 -88 -210
-182 -403 -392 -557 -605 -66 -91 -202 -320 -278 -468 -56 -110 -75 -136 -75
-103 0 7 -11 30 -25 50 -14 20 -27 51 -30 69 -6 34 -40 77 -61 77 -23 0 92
278 158 385 50 79 156 205 173 205 22 0 85 62 85 84 0 53 -55 62 -94 15 -14
-17 -26 -36 -26 -42 0 -7 -23 -37 -51 -67 -99 -108 -188 -257 -249 -420 -27
-72 -29 -74 -39 -48 -83 216 -160 348 -280 478 -22 25 -41 50 -41 57 0 22 -52
73 -74 73 -57 0 -62 -56 -9 -99 21 -17 42 -31 47 -31 27 0 168 -185 221 -290
32 -62 115 -268 115 -283 0 -6 -14 -22 -31 -36 -20 -17 -31 -36 -33 -57 -1
-17 -12 -43 -24 -59 -12 -16 -25 -39 -28 -52 -4 -13 -10 -23 -15 -21 -4 2 -37
59 -72 128 -228 443 -457 736 -832 1065 -44 39 -82 72 -85 75 -44 44 -264 167
-411 229 -182 77 -277 107 -419 131 -70 12 -395 23 -420 14z"/>
</g>
</svg>
